<svg xmlns="http://www.w3.org/2000/svg" viewBox="0 0 100.68 76.89"><title>video-made__play-button</title><path d="M97,18.15s-.92-7-3.79-10.08C89.54,4,85.5,4,83.63,3.77c-13.33-1-33.3-1-33.3-1h0s-20,0-33.31,1C15.1,4,11.06,4,7.43,8.07c-2.84,3.1-3.78,10.08-3.78,10.08s-.9,8.21-.9,16.42v7.7a163.71,163.71,0,0,0,1,16.42s.92,7,3.78,10.08c3.63,4,8.37,3.91,10.49,4.35,7.62.77,32.36,1,32.36,1s20,0,33.32-1c1.87-.23,5.91-.25,9.54-4.3C96,65.73,97,58.72,97,58.72a163.78,163.78,0,0,0,1-16.43V34.6C97.9,26.36,97,18.15,97,18.15Z" fill="#63d1bb"/><path d="M50.31,76.89h0c-1,0-24.95-.27-32.6-1h-.15l-.13,0-1.13-.17c-2.5-.32-7.16-.93-10.84-5C2.1,67,1.08,59.85,1,59.05v0c0-.35-1-8.47-1-16.74v-7.7c0-8.26.88-16.38.91-16.72v-.07C1,17,2.08,9.85,5.39,6.22A15.44,15.44,0,0,1,16.11,1.1L16.64,1h.12C30,0,50.07,0,50.28,0h0c.2,0,20.23,0,33.51,1H84l.53.06A15.42,15.42,0,0,1,95.2,6.21C98.55,9.83,99.58,17,99.68,17.79v0c0,.35,1,8.46,1,16.76v7.7a164.27,164.27,0,0,1-1,16.74v0c-.11.81-1.16,8-4.48,11.57a15.44,15.44,0,0,1-10.71,5.11l-.53.06h-.13c-13.27,1-33.33,1.06-33.53,1.06Zm-31.94-6.5c7.48.73,31.22,1,32,1s20.13,0,33.05-1l.58-.06A10,10,0,0,0,91.15,67l0,0C93,65,94,60,94.25,58.38c.06-.52.93-8.36.93-16.08V34.6c0-7.76-.9-15.63-1-16.11-.32-2.38-1.44-6.79-3.07-8.54l0,0a10,10,0,0,0-7.19-3.34l-.58-.06c-13.07-1-32.83-1-33-1h0c-.2,0-20,0-33,1l-.58.06A10,10,0,0,0,9.48,9.91l0,0c-1.83,2-2.86,6.93-3.08,8.55-.06.59-.88,8.4-.88,16.09v7.7a159.83,159.83,0,0,0,.93,16.08c.32,2.39,1.43,6.79,3.06,8.54l0,0c2.32,2.59,5.3,3,7.48,3.26C17.49,70.25,18,70.31,18.37,70.39Z" fill="#fff"/><polygon points="38.43 20.58 38.43 56.29 68.18 38.43 38.43 20.58" fill="#fff"/></svg>