<svg xmlns="http://www.w3.org/2000/svg" viewBox="0 0 1150 23"><path d="M1150 0c-9 0-13.73 4.59-17.51 8.28-3.42 3.32-5.88 5.72-11.24 5.72s-7.82-2.4-11.23-5.72c-3.79-3.69-8.5-8.28-17.52-8.28s-13.72 4.59-17.5 8.28c-3.41 3.32-5.88 5.72-11.24 5.72s-7.82-2.4-11.23-5.72C1048.73 4.59 1044 0 1035 0s-13.73 4.59-17.52 8.28c-3.41 3.32-5.87 5.72-11.23 5.72s-7.82-2.4-11.25-5.72C991.24 4.59 986.53 0 977.51 0S963.78 4.59 960 8.28c-3.42 3.32-5.88 5.72-11.24 5.72s-7.82-2.4-11.23-5.72C933.74 4.59 929 0 920 0s-13.72 4.59-17.5 8.28c-3.42 3.32-5.88 5.72-11.24 5.72s-7.82-2.4-11.26-5.72C876.24 4.59 871.53 0 862.51 0S848.79 4.59 845 8.28c-3.41 3.32-5.88 5.72-11.24 5.72s-7.82-2.4-11.23-5.72C818.75 4.59 814 0 805 0s-13.73 4.59-17.51 8.28c-3.4 3.32-5.86 5.72-11.22 5.72s-7.82-2.4-11.27-5.72C761.25 4.59 756.54 0 747.53 0S733.8 4.59 730 8.28c-3.4 3.32-5.86 5.72-11.22 5.72s-7.78-2.4-11.23-5.72C703.76 4.59 699.05 0 690 0s-13.72 4.59-17.51 8.28c-3.38 3.32-5.85 5.72-11.2 5.72s-7.83-2.4-11.24-5.72C646.27 4.59 641.56 0 632.54 0S618.81 4.59 615 8.28c-3.39 3.32-5.85 5.72-11.21 5.72s-7.79-2.4-11.24-5.72C588.77 4.59 584.06 0 575 0s-13.73 4.59-17.51 8.28c-3.38 3.32-5.84 5.72-11.2 5.72s-7.82-2.4-11.23-5.72C531.27 4.59 526.56 0 517.54 0S503.82 4.59 500 8.28c-3.38 3.32-5.85 5.72-11.2 5.72s-7.8-2.4-11.24-5.72C473.77 4.59 469.06 0 460.05 0s-13.73 4.59-17.52 8.28c-3.41 3.32-5.88 5.72-11.24 5.72s-7.82-2.4-11.23-5.72C416.27 4.59 411.56 0 402.54 0S388.81 4.59 385 8.28c-3.38 3.32-5.85 5.72-11.21 5.72s-7.79-2.4-11.23-5.72C358.77 4.59 354.06 0 345 0s-13.73 4.59-17.51 8.28c-3.38 3.32-5.84 5.72-11.2 5.72s-7.82-2.4-11.24-5.72C301.27 4.59 296.56 0 287.54 0S273.81 4.59 270 8.28c-3.39 3.32-5.85 5.72-11.21 5.72s-7.79-2.4-11.24-5.72C243.77 4.59 239.06 0 230 0s-13.73 4.59-17.52 8.28c-3.37 3.32-5.83 5.72-11.19 5.72s-7.82-2.4-11.24-5.72C186.27 4.59 181.56 0 172.54 0S158.81 4.59 155 8.28c-3.39 3.32-5.86 5.72-11.22 5.72s-7.78-2.4-11.23-5.72C128.76 4.59 124.05 0 115 0s-13.7 4.59-17.49 8.28C94.1 11.6 91.63 14 86.27 14S78.45 11.6 75 8.28C71.25 4.59 66.54 0 57.52 0S43.79 4.59 40 8.28C36.59 11.6 34.12 14 28.76 14s-7.83-2.4-11.24-5.72C13.73 4.59 9 0 0 0v9c5.36 0 7.83 2.4 11.24 5.72C15 18.41 19.74 23 28.76 23s13.73-4.59 17.52-8.28C49.69 11.4 52.16 9 57.52 9s7.82 2.4 11.24 5.72c3.78 3.69 8.5 8.28 17.51 8.28s13.73-4.59 17.52-8.28C107.2 11.4 109.67 9 115 9s7.82 2.4 11.24 5.72c3.78 3.69 8.5 8.28 17.51 8.28s13.73-4.59 17.52-8.28C164.71 11.4 167.18 9 172.54 9s7.82 2.4 11.23 5.72c3.79 3.69 8.5 8.28 17.52 8.28s13.71-4.59 17.51-8.28C222.22 11.4 224.68 9 230 9s7.82 2.4 11.23 5.72c3.79 3.69 8.5 8.28 17.52 8.28s13.73-4.59 17.51-8.28C279.71 11.4 282.18 9 287.54 9s7.82 2.4 11.24 5.72c3.78 3.69 8.49 8.28 17.51 8.28s13.73-4.59 17.52-8.28C337.22 11.4 339.68 9 345 9s7.83 2.4 11.24 5.72c3.78 3.69 8.5 8.28 17.51 8.28s13.73-4.59 17.52-8.28C394.72 11.4 397.19 9 402.54 9s7.83 2.4 11.24 5.72c3.78 3.69 8.5 8.28 17.51 8.28s13.73-4.59 17.52-8.28C452.22 11.4 454.69 9 460.05 9s7.82 2.4 11.23 5.72c3.79 3.69 8.5 8.28 17.52 8.28s13.72-4.59 17.51-8.28C509.72 11.4 512.19 9 517.54 9s7.83 2.4 11.24 5.72c3.78 3.69 8.5 8.28 17.51 8.28s13.73-4.59 17.52-8.28C567.22 11.4 569.68 9 575 9s7.82 2.4 11.23 5.72c3.79 3.69 8.5 8.28 17.52 8.28s13.73-4.59 17.51-8.28C624.72 11.4 627.18 9 632.54 9s7.82 2.4 11.23 5.72c3.79 3.69 8.5 8.28 17.52 8.28s13.71-4.59 17.51-8.28C682.21 11.4 684.68 9 690 9s7.82 2.4 11.24 5.72c3.78 3.69 8.49 8.28 17.51 8.28s13.73-4.59 17.51-8.28C739.7 11.4 742.17 9 747.53 9s7.82 2.4 11.23 5.72c3.78 3.69 8.49 8.28 17.51 8.28s13.73-4.59 17.52-8.28C797.2 11.4 799.66 9 805 9s7.82 2.4 11.23 5.72C820 18.41 824.75 23 833.76 23s13.73-4.59 17.52-8.28C854.69 11.4 857.16 9 862.51 9s7.83 2.4 11.24 5.72c3.79 3.69 8.5 8.28 17.51 8.28s13.73-4.59 17.52-8.28C912.19 11.4 914.65 9 920 9s7.82 2.4 11.24 5.72c3.76 3.69 8.5 8.28 17.52 8.28s13.73-4.59 17.51-8.28C969.69 11.4 972.15 9 977.51 9s7.82 2.4 11.23 5.72c3.79 3.69 8.5 8.28 17.52 8.28s13.73-4.59 17.51-8.28C1027.18 11.4 1029.65 9 1035 9s7.82 2.4 11.23 5.72c3.79 3.69 8.5 8.28 17.51 8.28s13.73-4.59 17.52-8.28c3.41-3.32 5.88-5.72 11.23-5.72s7.83 2.4 11.24 5.72c3.78 3.69 8.5 8.28 17.51 8.28s13.73-4.59 17.52-8.28C1142.18 11.4 1144.64 9 1150 9z" fill="#f1f1f1"/></svg>