<svg data-name="Layer 1" xmlns="http://www.w3.org/2000/svg" viewBox="0 0 148.05 72.71"><g data-name="Layer 2"><path d="M143.16 31.4a39 39 0 0 1-4.65 2.77 17.6 17.6 0 0 0-.59-5.12c.05-.34.1-.67.14-1 .38-3 .66-7.12-2-9.22-.34-.26-1.25 0-1.92.27a6.4 6.4 0 0 0-.5-.41c-.08-.24-.16-.49-.23-.74s-.17-.18-.36-.21c.29-.38.26-.82-.42-1.09-.38-.15-.76-.29-1.14-.41-.07-.08-.13-.1-.17-.06a23.42 23.42 0 0 0-2.86-.71 5.68 5.68 0 0 1 .55-1 5.81 5.81 0 0 1 .43-.43l.19-.17.07-.06.09-.06c.37-.29.84-.87.22-1.2a2.1 2.1 0 0 0-2 .23 6.57 6.57 0 0 0-2.09 2.36 51.35 51.35 0 0 0-6.08-.07.89.89 0 0 0 .14-.25c.18-.59-.91-.53-1.19-.49-1.56.2-3.12.41-4.69.6 1.37-3.77 3.09-8.58 1-12.26C113.89.55 111.18.08 109 0a13.78 13.78 0 0 0-7 1.63c-4.76 2.62-7.11 7.71-8.21 13.14a1.83 1.83 0 0 0-2.64.47c-.13.32-.23.64-.33 1a1.53 1.53 0 0 0-.35.64.94.94 0 0 1 0 .16h-.19l.06-.31a.66.66 0 0 0 .28-.36c.57-2.3 1.16-4.59 2-6.82.27-.76-2.51-.4-2.81.42-.42 1.19-.78 2.41-1.12 3.62a.94.94 0 0 0-.42.33v.1a.87.87 0 0 0-.46-.17v-1c0-.44-2.83 0-2.83.75v1.6a2.48 2.48 0 0 0-.47.27l-.19.17a.39.39 0 0 0-.12.24v.15a.31.31 0 0 0 0 .47 1.19 1.19 0 0 0 .74.16h.14v.47h-.67l-.41-.05c0-.39-.68-.46-1.35-.33v-.15c-.11-.6-.18-1.19-.23-1.79a3.47 3.47 0 0 0 .68-.31c.15-.11.32-.23.32-.43v-.2c0-.18-.41-.2-.5-.21a2.83 2.83 0 0 0-.58 0C82 12.38 82 11.07 82 9.76c0-.84-2.82-.32-2.82.76a52.84 52.84 0 0 0 .19 5.34h-.27v-1.52c0-1.05-1.29-1.22-2.14-.81a1 1 0 0 0 .37-1 29.94 29.94 0 0 1-1-4.29c-.18-1.39-3-.68-2.82.76a31.66 31.66 0 0 0 1 4.29c.24.82 1.34.88 2.11.5a1 1 0 0 0-.37.77v.62a1.77 1.77 0 0 0-.77-.16c-1.06 0-1.68.89-1.4 1.48l-.49-.08a13.87 13.87 0 0 1-.72-3.83c0-.94-1.27-1.05-2.11-.67a.37.37 0 0 0 0-.17 14 14 0 0 1-.78-2.53c-.33-1.35-3.15-.6-2.82.75.16.64.3 1.28.52 1.9h-.06a2.63 2.63 0 0 0-.85.39c-.83.08-1.83.57-1.75 1.21.06.48.13 1 .21 1.43l-1.64.26a12.06 12.06 0 0 1-.62-2.45c-.13-.92-1.56-.85-2.33-.26a22.92 22.92 0 0 0-3.12-5.76c-2.63-3.44-7.1-4.61-11.25-3.79a8.94 8.94 0 0 0-5 2.64A6 6 0 0 0 40 10.32a19.25 19.25 0 0 0 1.58 6 2.62 2.62 0 0 0-.94.14c-.29.12-.56.25-.84.39-1.94 0-3.87 0-5.8-.07-4.18-.19-8.3-.86-12.5-.74-.92 0-1.53.72-1.46 1.26a4.36 4.36 0 0 0-2.15 2.29 52.3 52.3 0 0 0-5.33-3.21c-.69-.35-3.3.71-2.29 1.22a50.6 50.6 0 0 1 5.28 3.22 2.2 2.2 0 0 0 1.84-.07l.17-.08a9.62 9.62 0 0 0 .24 4.49.55.55 0 0 0 .17.27 8.68 8.68 0 0 0 0 1 .86.86 0 0 0 0 .16 1.21 1.21 0 0 0-.76.84 40.09 40.09 0 0 0-.3 4.23 1.13 1.13 0 0 0-.49.8 50.15 50.15 0 0 0 .47 9.95 74.86 74.86 0 0 0 1.17 8c.06.41.12.83.17 1.25a9.59 9.59 0 0 0-.24 3.48c-.88.17-1.73.87-1.23 1.62a9 9 0 0 0 2.61 2.65 2.32 2.32 0 0 0-1.88.55c-.81.81-1.71 1.53-2.53 2.34a.59.59 0 0 0 .29 1.08 2.31 2.31 0 0 0 2-.54c.82-.8 1.71-1.53 2.53-2.34a.64.64 0 0 0 .21-.73c3.2 1.74 7.23 1.27 11.11 1a34.67 34.67 0 0 0-2.17 5c-.26.72 2.51.38 2.8-.43a33.77 33.77 0 0 1 2.1-4.9c3.74.12 7.48.12 11.22.05a1 1 0 0 0 .74.34 34.64 34.64 0 0 0 9.69-.7c4.79-.23 9.58-.52 14.37-.81 7.53-.19 15-.35 22.58-.32l.32.32a1.35 1.35 0 0 0 1 .33h.2c.71 0 1.42.09 2.14.14a1.88 1.88 0 0 0 .56 0L99 60a1.15 1.15 0 0 0 .79.36c3.8.25 7.61.52 11.42.7a1 1 0 0 0 .82.34c7.07.06 15.28 2.81 21.56-1.73.5-.36.27-.88-.26-1a1.84 1.84 0 0 0-.33 0 60.09 60.09 0 0 0 3-8.56 1.06 1.06 0 0 0 .64-.86 33.32 33.32 0 0 1 .38-3.64c.16-.88.31-1.77.44-2.66.38-2.17.8-4.36 1-6.54a49.1 49.1 0 0 0 6.54-3.88c1.56-1.11-.79-1.88-1.84-1.13zm-55.33-15l-.13.12c.07-.31.15-.62.23-.93H88z"/><path d="M63.26 12.63c.13.19.56.21.75.21a3 3 0 0 0 1.11-.22c.4-.17 1.1-.56.77-1.07s-.61-1.19-1-1.76c-.12-.19-.56-.21-.75-.21a3 3 0 0 0-1.1.22c-.41.17-1.1.56-.77 1.07s.63 1.19.99 1.76zm-42.58-1.72c.22.64 1.11.64 1.65.5s1.39-.62 1.18-1.26a4.76 4.76 0 0 0-.9-1.78 1.69 1.69 0 0 0-1.9-.15c-.41.19-1.18.84-.69 1.35a3.07 3.07 0 0 1 .66 1.34zm9.98 2.98c.84 0 3.07-1.27 1.19-1.27-.85 0-3.08 1.27-1.19 1.27zm91.9-1.62a2.12 2.12 0 0 0 1.06-.06 2.09 2.09 0 0 0 .94-.47 5.17 5.17 0 0 0 1-1.18c.1-.2.17-.4 0-.59a1.17 1.17 0 0 0-.77-.25 2.77 2.77 0 0 0-1.1.22 1.58 1.58 0 0 0-.76.56 3.54 3.54 0 0 1-.35.51l-.2.2a.67.67 0 0 0-.28.61.67.67 0 0 0 .46.45zm13.3 5.42a3.53 3.53 0 0 0 1.89-.66 21.19 21.19 0 0 0 3.63-3.64c.29-.39-1-.25-1.12-.23a2.73 2.73 0 0 0-1.66.74 19.72 19.72 0 0 1-3.39 3.38c-.5.41.44.43.65.41zm10.88 27.08h-4.87a1.61 1.61 0 0 0-1.56 1.14c-.09.74.76.92 1.31.92h4.87a1.61 1.61 0 0 0 1.51-1.14c.13-.69-.71-.92-1.26-.92zM57 60.78c-.5.08-1.41.3-1.64.84A33.82 33.82 0 0 0 54 65.51c-.21.74 2.57.33 2.8-.45a34 34 0 0 1 1.36-3.9c.24-.52-.95-.41-1.16-.38zm4.6 2.59a4 4 0 0 0-1 .16 3.84 3.84 0 0 0-1 .38c-.14.08-.33.2-.33.39v.35a.72.72 0 0 1-.13.28c-.06.08-.11.18 0 .25a1.23 1.23 0 0 0 .71.06A4.09 4.09 0 0 0 61 65a2 2 0 0 0 .8-.41.9.9 0 0 0 .28-.5 2.32 2.32 0 0 0 .05-.53c-.04-.18-.46-.18-.53-.19zm55.05 3.68c-.35-.68-3 .33-2.82.76.84 1.64 1.94 3.12 2.92 4.67.44.69 3-.41 2.83-.75-.99-1.56-2.08-3.04-2.93-4.68zm4.09-2.34c-.29-.59-1.06-.56-1.62-.41-.35.09-1.49.6-1.2 1.17l1.17 2.34c.29.59 1.07.56 1.62.41.35-.09 1.49-.6 1.2-1.17zM5.67 43.11c-1.49.35-3 .57-4.48 1-.54.15-1.34.64-1.16 1.32s1.12.71 1.66.56c1.48-.4 3-.62 4.48-1 .54-.12 1.34-.65 1.16-1.31s-1.12-.68-1.66-.57z"/></g><path d="M43.75 40.11c-.08-2.71-.51-5.4-.48-8.11 0-2.2.4-4.45-.36-6.56.05-.23.1-.47.14-.71.2-1.06-3.3-.5-3.85.46-.34.29-.52.63-.37 1a2.77 2.77 0 0 0 .1.26 78.24 78.24 0 0 1-2.65 9.5c-.4 1.2-.89 2.37-1.31 3.57a37 37 0 0 1-1.66-3.41c-1.38-3.47-2.63-7-4.32-10.3.19-1.54-3.23-1.38-3.91 0a8.76 8.76 0 0 0-.44 5.26 45.43 45.43 0 0 1 .36 6.17c.05 4 .36 8 .42 12a1 1 0 0 0-.09 1.39 3.3 3.3 0 0 0 .57.55c.92.73 3.54.11 3.53-1.28 0-4.16-.31-8.32-.42-12.47V36.2l.18.44a34.05 34.05 0 0 0 2.2 4.7 21.14 21.14 0 0 1 1.82 4.72.76.76 0 0 0-.23.71c0 .18.07.29.25.36.65.56 1.86.28 2.53 0a6.65 6.65 0 0 0 .84-.43c.35-.21.89-.69.73-1.17l-.09-.28a24 24 0 0 0 1-4 24.59 24.59 0 0 1 1.31-4.17l.12 1.92c.21 2.57 0 5.11 0 7.69a11.59 11.59 0 0 0 .22 2.49 11.18 11.18 0 0 1 .29 1.9c-.62.57-.44 1.27.38 1.45a3.38 3.38 0 0 0 2.8-.75c1.21-1.12.64-2.87.36-4.28-.45-2.34.11-4.99.03-7.39zm8.44.68c-.07-2-.77-3.9-.78-5.93a48.89 48.89 0 0 0-.16-6.95c-.1-.73-4.09.11-4 1.06a39.21 39.21 0 0 1 .16 6.41 41 41 0 0 0 .74 6c.27 2.08-.08 4.2.15 6.27.11 1 .76 2.77.09 3.62-.42.53 1.48.34 1.57.33a4 4 0 0 0 2.32-1.05c.66-.84.2-2.45.06-3.39a55.71 55.71 0 0 1-.15-6.37zm16.48-3.35c-2.08-2.81-5.94-.79-8.64-1.56-1.39-.39-1.41-2.29-1.4-3.42a36.7 36.7 0 0 0-.28-4.19 3.46 3.46 0 0 1 .75-2.93 4.79 4.79 0 0 1 .82-.34 7.37 7.37 0 0 1 1.08-.09c1.56-.07 4.65.23 4.06 2.5-.27 1 3.62.44 3.91-.64 1.22-4.64-7.35-3.75-9.78-3.11-2.23.59-4.69 1.86-4.82 4.44-.06 1.23.28 2.4.33 3.62.06 1.4-.2 2.8.29 4.16 1.1 3 5.57 1.59 7.85 1.76 3.88.29 2.72 5.52 2.78 8 0 1.3 1.19 3.46.21 4.55-.6.67-2 .71-2.82.77s-2.22.32-2.77-.46c-1-1.43.1-3.83-.12-5.47C60 44 56 44.88 56.17 46c.35 2.65-1.41 6.19 2.42 6.65a18.18 18.18 0 0 0 7.57-.94 8.83 8.83 0 0 0 3.27-1.81c1-.94.7-2.36.42-3.57-.68-2.91.74-6.33-1.18-8.89zm17.48-.19c-.12-3.81-.69-7.58-.71-11.4 0-2-4-1.32-4 .34 0 3.64.5 7.24.69 10.87v.22c-2 0-3.93.18-5.9.25.2-4.68-.62-9.31-.44-14 0-.58-3.91-.09-4 1.06-.17 4.52.6 9 .46 13.52-.06 2.15-.25 4.3-.26 6.46a21.45 21.45 0 0 0 .33 3.29 8.26 8.26 0 0 1 .18 3.35c-.23.78 3.6.29 3.9-.7.55-1.8-.22-4.08-.41-5.89a31.33 31.33 0 0 1 .09-5.3 29.9 29.9 0 0 1 6.13 0q.14 2.09.33 4.17c.1 1.17.18 2.33.2 3.51a10.71 10.71 0 0 1-.23 3.49c-.78 2.07 3.18 1.9 3.76.37.71-1.89.51-4.24.39-6.22-.1-2.47-.43-4.92-.51-7.39zm17.09 4.51a74.74 74.74 0 0 0-3.65-7.87c1-2 2-3.93 3-5.94.84-1.82 1.46-3.85 3.11-5.14.58-.45.55-.9-.26-1a4.51 4.51 0 0 0-2.79.75 10.84 10.84 0 0 0-3.23 4.31C98.44 29 97.46 31 96.44 33l-.23.45a1.15 1.15 0 0 0-.64 1.27c-.8 1.58-1.62 3.15-2.53 4.66-.3-5.59-1-11.17-1.16-16.75 0-1.29-4-.49-3.95 1.06.25 6.93 1.23 13.84 1.3 20.77-.3.31-.19.5 0 .61 0 1.76-.06 3.53-.21 5.3-.47.75.47 1.15 1.1 1.15h.09c.75 0 2.65-.35 2.75-1.38.19-2.12.25-4.23.23-6.35a31.11 31.11 0 0 0 4.09-5.68 29.2 29.2 0 0 1 2 4.62c.87 2.77 2.32 5.31 3.16 8.09.55 1.82 4.5.74 4-1.06-.88-2.69-2.26-5.26-3.2-8zM127 37.08c-.21-.83-1.38-.85-2.29-.77v-1c-.13-2.68-.17-5.43-.39-8.1-.21-2.48-1.6-3.37-4-3.28a24.21 24.21 0 0 0-7.55 1.42 7 7 0 0 0-4.6 5.73c-.56 3 .24 6.27.37 9.33.16 3.54.07 7.08.07 10.61 0 .58 4 0 4-1v-8.41c0-.82 0-1.64-.1-2.46 1.38-.6 3.72 0 5.09.14a15.49 15.49 0 0 0 3.27-.29c0 2.33.11 4.68.21 7 0 1.19.48 3.56-.36 4.55-.44.52 1.5.34 1.57.33a4 4 0 0 0 2.32-1c1-1.13.47-3.82.41-5.17-.08-1.93-.1-3.86-.14-5.79 1.02-.26 2.3-.98 2.12-1.84zm-14.75-.15c-.11-1.25-.22-2.51-.31-3.77-.16-2.36.12-5.64 2.31-7.07a7.44 7.44 0 0 1 2.38-.44 3.74 3.74 0 0 1 2.85.19c1.22.81.92 3.69.92 4.92 0 2 .21 4 .31 6.05a11.82 11.82 0 0 1-1.69.08c-2.35-.05-4.63-.42-6.81.04zM48.77 25.18a3.26 3.26 0 0 0 1.49-.53l.26-.22c.52-.34 1-.84.73-1.37a8.07 8.07 0 0 1-.42-3.45c0-1-1-1.26-1.79-1.19s-2.19.58-2.2 1.58a16.92 16.92 0 0 0 .16 3 2.12 2.12 0 0 0-.1.36.7.7 0 0 0 .14.59v.48a.91.91 0 0 0 .43.53 2.19 2.19 0 0 0 1.3.22z" fill="#fff" data-name="Layer 1"/></svg>